<svg width="30" height="29" viewBox="0 0 30 29" fill="none" xmlns="http://www.w3.org/2000/svg">
<path d="M7.64909 0.774698C7.59022 0.77943 7.39951 0.80072 7.22528 0.822012C3.72884 1.22892 0.858711 3.88562 0.159424 7.36086C-0.153724 8.92224 0.00167298 10.926 0.562044 12.6199C1.15538 14.4012 2.15133 15.9579 3.85128 17.7582C4.65652 18.6099 5.34403 19.2486 7.59022 21.2358C8.13411 21.7161 8.73922 22.2531 8.93229 22.4305C11.3433 24.607 13.0173 26.4333 14.4559 28.456L14.5826 28.6351C14.6951 28.7943 14.8779 28.8889 15.0728 28.8889C15.2673 28.8874 15.4486 28.7901 15.5573 28.6288L15.6897 28.4323C17.0012 26.4877 18.5434 24.7418 20.8343 22.6103C21.284 22.1892 21.7949 21.7279 23.2523 20.4267C25.5033 18.4111 26.6546 17.2496 27.587 16.0502C29.1009 14.0984 29.8661 12.2579 30.0922 10.0105C30.1369 9.54679 30.1322 8.43727 30.0804 8.03509C29.8332 6.13069 29.0421 4.49361 27.7306 3.1759C26.4192 1.8582 24.7875 1.06095 22.8945 0.814915C22.4401 0.758137 21.4512 0.758137 20.9873 0.814915C19.2615 1.03493 17.7405 1.73045 16.4667 2.88256C16.017 3.28946 15.5108 3.86906 15.207 4.32564C15.1364 4.4321 15.0728 4.51963 15.0658 4.51963C15.0587 4.51963 14.9951 4.4321 14.9245 4.32564C14.6208 3.86906 14.1145 3.28946 13.6648 2.88256C12.4146 1.75174 10.9101 1.05385 9.24308 0.831476C8.89932 0.784163 7.91985 0.751041 7.64909 0.774698Z" fill="#282828" fill-opacity="0.3"/>
</svg>
