<svg width="20" height="20" viewBox="0 0 20 20" fill="none" xmlns="http://www.w3.org/2000/svg">
<g clip-path="url(#clip0_53_204)">
<path d="M19.5557 4.94693C19.5557 4.92579 19.5557 4.92579 19.5557 4.90465C19.5346 4.86236 19.5346 4.82008 19.5134 4.7778V4.75667C19.4923 4.71439 19.45 4.67211 19.4289 4.65096L19.4077 4.62982C19.3866 4.60868 19.3443 4.58754 19.3231 4.5664L19.302 4.54526H19.2809L19.2597 4.52412L10.2749 0.0634222C10.1058 -0.0211407 9.89438 -0.0211407 9.70413 0.0634222L6.681 1.56441L15.7081 6.19423L15.7293 6.21538C15.7503 6.21538 15.7503 6.23652 15.7715 6.23652C15.7927 6.25766 15.7927 6.2788 15.8137 6.29994C15.8137 6.32108 15.8137 6.32108 15.8137 6.34222V6.36336V11.268C15.8137 11.3526 15.7715 11.416 15.7081 11.4583L13.89 12.4096C13.7843 12.4731 13.6574 12.4307 13.594 12.3251C13.5729 12.3039 13.5729 12.2616 13.5729 12.2193V7.4204L4.44008 2.70601L4.41894 2.68487L0.761592 4.50298L0.740452 4.52412H0.71931L0.698169 4.54526C0.677029 4.5664 0.634747 4.58754 0.613607 4.60868L0.592466 4.62982C0.550185 4.67211 0.529043 4.71439 0.486762 4.75667V4.7778C0.465622 4.82008 0.444481 4.86236 0.444481 4.90465C0.444481 4.92579 0.444481 4.92579 0.444481 4.94693C0.444481 4.98921 0.42334 5.01035 0.42334 5.05264V5.07378V14.9254C0.42334 15.1579 0.550185 15.3905 0.782733 15.4961L9.68298 19.9358C9.80983 19.9992 9.95781 20.0202 10.1058 19.978L10.1481 19.9568C10.1904 19.9568 10.2115 19.9358 10.2538 19.9146L19.2175 15.4751C19.4289 15.3693 19.5768 15.1579 19.5768 14.9042V5.07378V5.05264C19.5557 5.01035 19.5557 4.98921 19.5557 4.94693Z" fill="#FF6600"/>
</g>
<defs>
<clipPath id="clip0_53_204">
<rect width="20" height="20" fill="white"/>
</clipPath>
</defs>
</svg>
