<svg width="21" height="21" viewBox="0 0 21 21" fill="none" xmlns="http://www.w3.org/2000/svg">
<g clip-path="url(#clip0_4_173)">
<path d="M20.6663 15.1185L19.3017 11.1532L16.6844 13.8708L20.6663 15.1185Z" fill="#FF6600"/>
<path d="M8.49634 6.01826L11.4701 3.04456L12.273 3.84752L9.29931 6.82123L8.49634 6.01826Z" fill="#FF6600"/>
<path d="M15.6926 13.2136L18.6108 10.1835L13.1046 4.67627L10.1306 7.65061L15.6926 13.2136Z" fill="#FF6600"/>
<path d="M7.66735 5.18737L10.6413 2.21307L9.39656 0.968071C8.57673 0.147993 7.24259 0.148032 6.4227 0.968071C6.02555 1.36534 5.80676 1.8935 5.80676 2.4553C5.80676 3.0171 6.02552 3.5453 6.4227 3.94252L7.66735 5.18737Z" fill="#FF6600"/>
<path d="M0.666626 20.3537H2.96666V18.5482H4.1403V20.3537H5.31408V18.5482H6.48772V20.3537H7.66147V18.5482H8.83511V20.3537H10.0089V18.5482H11.1825V20.3537H12.3563V18.5482H13.5299V20.3537H14.7037V18.5482H15.8773V20.3537H20.6626L0.666626 0.35791V20.3537ZM4.34795 9.14354L11.8866 16.6918H4.34795V9.14354Z" fill="#FF6600"/>
</g>
<defs>
<clipPath id="clip0_4_173">
<rect width="20" height="20" fill="white" transform="translate(0.666626 0.176514)"/>
</clipPath>
</defs>
</svg>
