<svg width="20" height="20" viewBox="0 0 20 20" fill="none" xmlns="http://www.w3.org/2000/svg">
<g clip-path="url(#clip0_53_209)">
<path d="M13.4375 10.625H11.875V12.5H13.4375C13.9544 12.5 14.375 12.0794 14.375 11.5625C14.375 11.0456 13.9544 10.625 13.4375 10.625Z" fill="#FF6600"/>
<path d="M13.1249 6.25C9.33411 6.25 6.25 9.33411 6.25 13.1249C6.25 16.9159 9.33411 20 13.1249 20C16.9159 20 20 16.9159 20 13.1249C20 9.33411 16.9159 6.25 13.1249 6.25ZM13.4375 13.75H11.8751V14.3751H13.1249C13.4701 14.3751 13.75 14.6548 13.75 15C13.75 15.3452 13.4701 15.6249 13.1249 15.6249H11.8751V16.25C11.8751 16.5952 11.5952 16.8751 11.25 16.8751C10.9048 16.8751 10.625 16.5952 10.625 16.25C10.625 16.0736 10.625 10.1762 10.625 10C10.625 9.6548 10.9048 9.375 11.25 9.375H13.4375C14.6436 9.375 15.6249 10.3563 15.6249 11.5625C15.6249 12.7687 14.6436 13.75 13.4375 13.75Z" fill="#FF6600"/>
<path d="M5.13894 11.6218C5.17508 11.4288 5.02864 11.25 4.83227 11.25H3.75C2.71446 11.25 1.875 12.0894 1.875 13.1249C1.875 13.4708 2.15468 13.75 2.5 13.75H4.38594C4.71544 13.75 5 13.4866 5 13.1249C5 12.6114 5.04778 12.1089 5.13894 11.6218Z" fill="#FF6600"/>
<path d="M2.5 7.5C1.46446 7.5 0.625 8.33946 0.625 9.375C0.625 9.72082 0.904687 10 1.25 10H5.21758C5.45918 10 5.67847 9.86044 5.78219 9.64222C6.06086 9.05589 6.40758 8.5082 6.81222 8.00934C6.97796 7.805 6.83308 7.5 6.56996 7.5H2.5Z" fill="#FF6600"/>
<path d="M13.8258 4.29922C13.4867 3.95976 13.018 3.75 12.5 3.75H3.75C2.71446 3.75 1.875 4.58946 1.875 5.625C1.875 5.97082 2.15468 6.25 2.5 6.25H8.12231C8.52938 6.25 8.93145 6.15278 9.29015 5.96032C10.6017 5.2566 12.0572 4.94032 13.5148 5.00922C13.8864 5.02675 14.1025 4.57594 13.8258 4.29922Z" fill="#FF6600"/>
<path d="M10.625 0H1.875C0.839453 0 0 0.839453 0 1.875C0 2.21911 0.278749 2.5 0.625 2.5H11.8751C12.2202 2.5 12.5 2.2202 12.5 1.875C12.5 0.842344 11.6634 0 10.625 0Z" fill="#FF6600"/>
<path d="M4.73793 15H1.875C0.839453 15 0 15.8394 0 16.8751V18.1249C0 19.1606 0.839453 20 1.875 20H7.82157C8.11488 20 8.24805 19.6306 8.01997 19.4461C6.75965 18.4273 5.81035 17.0392 5.33653 15.4464C5.25778 15.1815 5.01422 15 4.73793 15Z" fill="#FF6600"/>
</g>
<defs>
<clipPath id="clip0_53_209">
<rect width="20" height="20" fill="white"/>
</clipPath>
</defs>
</svg>
