<svg width="21" height="19" viewBox="0 0 21 19" fill="none" xmlns="http://www.w3.org/2000/svg">
<g clip-path="url(#clip0_4_189)">
<path d="M11.3677 16.7341V15.299H0.333252V16.74C0.333252 18.045 1.34349 19.1234 2.59383 19.1234H12.4798C12.385 19.0334 12.2936 18.9545 12.2073 18.8641C11.6673 18.2987 11.3652 17.5325 11.3677 16.7341Z" fill="#FF6600"/>
<path d="M8.14635 8.03366L9.74758 9.18116L11.355 8.03366C11.7946 7.72063 12.1439 7.01427 12.1439 6.45888V4.08757L9.75161 2.85254L7.35938 4.08442V6.45888C7.35938 7.01409 7.70655 7.72063 8.14635 8.03366ZM8.50683 5.79241C8.6252 5.67009 8.8163 5.67096 8.93349 5.7947L9.41436 6.30157L10.5718 5.09361C10.6896 4.97057 10.8807 4.97057 10.9986 5.09379C11.1164 5.21681 11.1163 5.41629 10.9984 5.53933L9.62668 6.97192C9.5701 7.03114 9.49349 7.06489 9.41335 7.06523H9.41268C9.3322 7.06472 9.25525 7.03079 9.19901 6.97068L8.50465 6.23848C8.38746 6.11457 8.38847 5.91509 8.50683 5.79241Z" fill="#FF6600"/>
<path d="M18.7336 0.406128H18.7241C17.8376 0.406128 17.1003 1.17928 17.1003 2.10516V4.99547H20.333V2.09953C20.337 1.1719 19.6223 0.415092 18.7336 0.406128Z" fill="#FF6600"/>
<path d="M4.96559 0.406128C4.12726 0.406128 3.44502 1.1088 3.44502 1.97071L3.35596 14.6691H11.6695C11.8387 14.6762 11.9723 14.8218 11.9713 14.9988V16.7342C11.9682 18.0463 12.9814 19.1139 14.2383 19.1235H14.2458C15.498 19.1139 16.5057 18.0468 16.4971 16.7397V2.10569C16.4971 1.44362 16.7825 0.856063 17.2113 0.406128H4.96559ZM6.75573 3.88785C6.75186 3.76939 6.81399 3.65919 6.91518 3.60506L9.61723 2.21887C9.70024 2.17599 9.79756 2.17599 9.88057 2.21887L12.5874 3.60893C12.6887 3.66306 12.7509 3.77309 12.7471 3.89172V6.45881C12.7471 7.22283 12.3004 8.12358 11.6955 8.554L9.92283 9.82278C9.87316 9.85846 9.81423 9.87761 9.75396 9.87761C9.69384 9.87761 9.63525 9.85864 9.58591 9.82278L7.80806 8.554C7.20344 8.1234 6.75573 7.22265 6.75573 6.45881V3.88785ZM14.0403 13.2293H5.76436C5.59766 13.2293 5.46263 13.0883 5.46263 12.9143C5.46263 12.7403 5.59766 12.5993 5.76436 12.5993H14.0403C14.2069 12.5993 14.3419 12.7403 14.3419 12.9143C14.3419 13.0883 14.2069 13.2293 14.0403 13.2293ZM14.0403 11.5645H5.76436C5.59766 11.5645 5.46263 11.4236 5.46263 11.2496C5.46263 11.0756 5.59766 10.9346 5.76436 10.9346H14.0403C14.2069 10.9346 14.3419 11.0756 14.3419 11.2496C14.3419 11.4236 14.2069 11.5645 14.0403 11.5645Z" fill="#FF6600"/>
</g>
<defs>
<clipPath id="clip0_4_189">
<rect width="20" height="18.8235" fill="white" transform="translate(0.333252 0.176514)"/>
</clipPath>
</defs>
</svg>
