<svg width="20" height="21" viewBox="0 0 20 21" fill="none" xmlns="http://www.w3.org/2000/svg">
<path d="M19.6394 3.49337C19.4401 3.49337 19.2784 3.65497 19.2784 3.85431V19.4534H16.3923V18.6406H18.1197C18.319 18.6406 18.4807 18.4791 18.4807 18.2797V11.8977C18.4807 11.6983 18.319 11.5367 18.1197 11.5367H16.5774V10.739H18.1197C18.319 10.739 18.4807 10.5774 18.4807 10.3781V2.04087C18.4807 1.84153 18.319 1.67993 18.1197 1.67993H10.7601C10.5608 1.67993 10.3992 1.84153 10.3992 2.04087V7.26931H9.60141V2.04087C9.60141 1.84153 9.43981 1.67993 9.24047 1.67993H1.8809C1.68156 1.67993 1.51996 1.84153 1.51996 2.04087V8.83165V10.378C1.51996 10.5774 1.68156 10.739 1.8809 10.739H3.18605C3.38539 10.739 3.54699 10.5774 3.54699 10.378C3.54699 10.1787 3.38539 10.0171 3.18605 10.0171H2.24184V9.19259H3.77348C5.05039 9.19259 6.08922 8.15375 6.08922 6.87688V2.4018H8.87954V7.63025C8.87954 7.82958 9.04114 7.99118 9.24047 7.99118H10.7601C10.9595 7.99118 11.1211 7.82958 11.1211 7.63025V2.4018H17.7588V3.3304H16.8056C16.6062 3.3304 16.4447 3.492 16.4447 3.69134V8.64825C16.4447 8.84759 16.6062 9.00919 16.8056 9.00919H17.7588V10.0171H16.2164C16.017 10.0171 15.8555 10.1787 15.8555 10.378V11.8976C15.8555 12.097 16.017 12.2586 16.2164 12.2586H17.7588V17.9187H16.0314C15.832 17.9187 15.6704 18.0804 15.6704 18.2797V19.8144C15.6704 20.0137 15.832 20.1753 16.0314 20.1753H19.6393C19.8386 20.1753 20.0002 20.0137 20.0002 19.8144V3.85431C20.0003 3.65497 19.8387 3.49337 19.6394 3.49337ZM5.36738 6.87688H5.36735C5.36735 7.75571 4.65235 8.47071 3.77348 8.47071H2.24184V2.4018H2.50519V2.63513C2.50519 2.83446 2.66679 2.99606 2.86613 2.99606C3.06546 2.99606 3.22708 2.83446 3.22708 2.63513V2.4018H3.44363V3.357C3.44363 3.55634 3.60523 3.71794 3.80457 3.71794C4.00391 3.71794 4.16551 3.55634 4.16551 3.357V2.4018H4.38208V2.63513C4.38208 2.83446 4.54368 2.99606 4.74301 2.99606C4.94235 2.99606 5.10395 2.83446 5.10395 2.63513V2.4018H5.36735V6.87688H5.36738ZM17.7588 8.28735H17.1666V4.05227H17.7588V8.28735Z" fill="#FF6600"/>
<path d="M19.6391 0.176514H0.360938C0.161601 0.176514 0 0.338115 0 0.537451V19.8155C0 20.0149 0.161601 20.1764 0.360938 20.1764H13.1238C13.3232 20.1764 13.4847 20.0149 13.4847 19.8155V18.2809C13.4847 18.0815 13.3232 17.92 13.1238 17.92H11.1207V14.406C11.1207 14.2067 10.9591 14.045 10.7598 14.045H9.24015C9.04082 14.045 8.87922 14.2067 8.87922 14.406V17.92H2.24152V17.0929H3.33906C3.67825 17.0929 3.97796 16.922 4.15754 16.662C4.47145 16.8245 4.83215 16.9117 5.21106 16.9117C6.33692 16.9117 7.25289 16.1247 7.25289 15.1574C7.25289 14.8701 7.17071 14.5852 7.01524 14.3336C6.91051 14.1641 6.68805 14.1114 6.51848 14.2162C6.34887 14.321 6.29633 14.5434 6.40109 14.713C6.48731 14.8525 6.53098 15.0021 6.53098 15.1574C6.53098 15.7265 5.93882 16.1897 5.21106 16.1897C4.88629 16.1897 4.57468 16.0947 4.33344 15.9257V14.3889C4.57468 14.22 4.88629 14.1249 5.21106 14.1249C5.42121 14.1249 5.62215 14.1628 5.80828 14.2375C5.99317 14.3118 6.20344 14.2221 6.27769 14.037C6.35195 13.8521 6.26219 13.6418 6.07719 13.5676C5.80512 13.4583 5.51375 13.403 5.21098 13.403C4.83204 13.403 4.47125 13.4901 4.15722 13.6529C3.97766 13.393 3.67805 13.2222 3.33894 13.2222H2.24152V12.2597H12.2035C12.4029 12.2597 12.5645 12.0981 12.5645 11.8987V10.3791C12.5645 10.1798 12.4029 10.0182 12.2035 10.0182H4.34074C4.14141 10.0182 3.9798 10.1798 3.9798 10.3791C3.9798 10.5785 4.14141 10.7401 4.34074 10.7401H11.8427V11.5378H1.88059C1.68125 11.5378 1.51965 11.6994 1.51965 11.8987V18.2808C1.51965 18.4802 1.68125 18.6417 1.88059 18.6417H9.2402C9.43953 18.6417 9.60113 18.4802 9.60113 18.2808V14.7669H10.3989V18.2808C10.3989 18.4802 10.5605 18.6417 10.7598 18.6417H12.7629V19.4545H0.721875V0.898388H19.2781V2.57214C19.2781 2.77147 19.4398 2.93307 19.6391 2.93307C19.8384 2.93307 20 2.77147 20 2.57214V0.537451C20 0.338115 19.8384 0.176514 19.6391 0.176514ZM2.24152 13.9442H3.33906C3.48938 13.9442 3.6116 14.0664 3.6116 14.2167V16.0985C3.6116 16.2488 3.48938 16.371 3.33906 16.371H2.24152V13.9442Z" fill="#FF6600"/>
<path d="M15.0873 3.33044H12.4226C12.2233 3.33044 12.0616 3.49206 12.0616 3.69139V8.6483C12.0616 8.84763 12.2233 9.00924 12.4226 9.00924H15.0873C15.2866 9.00924 15.4482 8.84763 15.4482 8.6483V7.46924V4.87044V3.69139C15.4482 3.49206 15.2866 3.33044 15.0873 3.33044ZM14.7264 7.1083H14.0379V5.23139H14.7264V7.1083ZM14.7264 4.50952H13.6769C13.4776 4.50952 13.316 4.67112 13.316 4.87044V7.46924C13.316 7.66857 13.4776 7.83017 13.6769 7.83017H14.7264V8.28736H12.7835V4.05233H14.7264V4.50952Z" fill="#FF6600"/>
<path d="M5.11044 15.5174C5.30978 15.5174 5.47138 15.3558 5.47138 15.1565C5.47138 14.9571 5.30978 14.7955 5.11044 14.7955C4.91111 14.7955 4.74951 14.9571 4.74951 15.1565C4.74951 15.3558 4.91111 15.5174 5.11044 15.5174Z" fill="#FF6600"/>
<path d="M3.80417 7.51986C4.00351 7.51986 4.16511 7.35826 4.16511 7.15891C4.16511 6.95957 4.00351 6.79797 3.80417 6.79797C3.60484 6.79797 3.44324 6.95957 3.44324 7.15891C3.44324 7.35826 3.60484 7.51986 3.80417 7.51986Z" fill="#FF6600"/>
</svg>
