<svg width="30" height="29" viewBox="0 0 30 29" fill="none" xmlns="http://www.w3.org/2000/svg">
<path d="M7.64909 0.774672C7.59022 0.779404 7.39951 0.800694 7.22528 0.821985C3.72884 1.22889 0.858711 3.88559 0.159424 7.36084C-0.153724 8.92221 0.00167298 10.926 0.562044 12.6198C1.15538 14.4012 2.15133 15.9579 3.85128 17.7582C4.65652 18.6098 5.34403 19.2486 7.59022 21.2358C8.13411 21.716 8.73922 22.253 8.93229 22.4305C11.3433 24.6069 13.0173 26.4333 14.4559 28.456L14.5826 28.6351C14.6951 28.7943 14.8779 28.8889 15.0728 28.8889C15.2673 28.8874 15.4486 28.7901 15.5573 28.6288L15.6897 28.4323C17.0012 26.4877 18.5434 24.7418 20.8343 22.6103C21.284 22.1892 21.7949 21.7279 23.2523 20.4267C25.5033 18.4111 26.6546 17.2495 27.587 16.0501C29.1009 14.0984 29.8661 12.2579 30.0922 10.0104C30.1369 9.54676 30.1322 8.43724 30.0804 8.03507C29.8332 6.13066 29.0421 4.49358 27.7306 3.17588C26.4192 1.85817 24.7875 1.06092 22.8945 0.814888C22.4401 0.75811 21.4512 0.75811 20.9873 0.814888C19.2615 1.0349 17.7405 1.73042 16.4667 2.88253C16.017 3.28943 15.5108 3.86903 15.207 4.32562C15.1364 4.43207 15.0728 4.51961 15.0658 4.51961C15.0587 4.51961 14.9951 4.43207 14.9245 4.32562C14.6208 3.86903 14.1145 3.28943 13.6648 2.88253C12.4146 1.75171 10.9101 1.05383 9.24308 0.83145C8.89932 0.784136 7.91985 0.751015 7.64909 0.774672Z" fill="#FF6600"/>
</svg>
