<svg width="20" height="23" viewBox="0 0 20 23" fill="none" xmlns="http://www.w3.org/2000/svg">
<path d="M15.1074 11.2931L13.9122 10.098L8.41029 15.6L6.02009 13.2097L4.825 14.4048L8.41029 17.9901L15.1074 11.2931ZM17.8921 2.20583H16.7647V-0.0490723H14.5098V2.20583H5.4902V-0.0490723H3.23529V2.20583H2.10785C0.856371 2.20583 -0.135786 3.22054 -0.135786 4.46074L-0.14706 20.245C-0.14706 21.4853 0.856371 22.5 2.10785 22.5H17.8921C19.1323 22.5 20.1471 21.4853 20.1471 20.245V4.46074C20.1471 3.22054 19.1323 2.20583 17.8921 2.20583ZM17.8921 20.245H2.10785V7.84309H17.8921V20.245Z" fill="#FF6600"/>
</svg>
