<svg width="28" height="28" viewBox="0 0 28 28" fill="none" xmlns="http://www.w3.org/2000/svg">
<path d="M11.1468 2.78115C12.0449 0.0172229 15.9551 0.0172191 16.8532 2.78115L18.0413 6.43769C18.4429 7.67376 19.5947 8.51064 20.8944 8.51064H24.7391C27.6453 8.51064 28.8536 12.2295 26.5025 13.9377L23.3921 16.1976C22.3406 16.9615 21.9006 18.3156 22.3022 19.5517L23.4903 23.2082C24.3884 25.9721 21.2249 28.2705 18.8738 26.5623L15.7634 24.3024C14.7119 23.5385 13.2881 23.5385 12.2366 24.3024L9.12621 26.5623C6.77507 28.2705 3.61162 25.9721 4.50968 23.2082L5.69776 19.5517C6.09938 18.3156 5.65941 16.9615 4.60795 16.1976L1.49751 13.9377C-0.853631 12.2295 0.354696 8.51064 3.26087 8.51064H7.10558C8.40526 8.51064 9.55713 7.67376 9.95875 6.43769L11.1468 2.78115Z" fill="#535050"/>
</svg>
