<svg width="8" height="12" viewBox="0 0 8 12" fill="none" xmlns="http://www.w3.org/2000/svg">
<g clip-path="url(#clip0)">
<path d="M3.36138 8.45451L2.90832 8.35242C1.9439 8.26517 1.03173 7.91559 0.292914 7.3501C0.151531 7.25257 0.0501138 7.11545 0.00460088 6.96031C-0.0191437 6.83854 -0.01002 6.71341 0.0312009 6.59549C0.0724218 6.47757 0.144529 6.37032 0.241429 6.28282C0.369765 6.15561 0.545234 6.07503 0.73485 6.05623C0.924466 6.03743 1.11517 6.08171 1.27112 6.18073C1.48735 6.2921 1.6727 6.43131 1.88893 6.54268C2.37089 6.76471 2.8948 6.90323 3.43346 6.95103C4.23478 7.04419 5.04916 6.94162 5.79145 6.65405C6.04355 6.54638 6.28473 6.41906 6.51223 6.27354C6.71569 6.13912 6.96021 6.06457 7.21242 6.06008C7.36516 6.06235 7.51381 6.10486 7.64006 6.18237C7.76631 6.25988 7.86464 6.369 7.9229 6.49627C7.97218 6.57414 8.00381 6.66005 8.01598 6.74902C8.02815 6.83799 8.02061 6.92826 7.99379 7.01458C7.96697 7.1009 7.92141 7.18157 7.85976 7.25191C7.7981 7.32225 7.72156 7.38086 7.63459 7.42435C7.25885 7.71891 6.83067 7.95423 6.36807 8.1204C5.91586 8.27251 5.44613 8.37836 4.9677 8.43595H4.65879L4.75146 8.53804L7.14034 10.6912C7.2649 10.791 7.35025 10.9245 7.38366 11.0717C7.41707 11.219 7.39673 11.372 7.32569 11.5079C7.26047 11.6476 7.15198 11.7674 7.01319 11.853C6.87441 11.9386 6.71122 11.9863 6.54312 11.9905C6.44641 11.9898 6.35086 11.9714 6.26233 11.9363C6.1738 11.9012 6.09416 11.8501 6.02828 11.7863L4.2984 10.255L4.12335 10.0601C4.07187 10.0044 4.03068 10.0044 3.9689 10.0601L3.01129 10.9232C2.68179 11.2202 2.36259 11.5172 1.9816 11.8049C1.8434 11.9251 1.65883 11.9923 1.46676 11.9923C1.27469 11.9923 1.09012 11.9251 0.951914 11.8049C0.803764 11.6892 0.702364 11.5325 0.663601 11.3594C0.640545 11.2549 0.646329 11.147 0.680445 11.045C0.71456 10.9431 0.775961 10.8502 0.859242 10.7747L2.14635 9.6146L3.27901 8.54732L3.36138 8.45451Z" fill="white"/>
<path d="M4.00048 1.38095e-05C4.66817 -0.00180126 5.32138 0.175346 5.8771 0.508942C6.43282 0.842538 6.86595 1.31752 7.12145 1.87352C7.37695 2.42952 7.44327 3.04143 7.31199 3.63149C7.18072 4.22154 6.85776 4.7631 6.38418 5.18733C5.9106 5.61155 5.30778 5.8993 4.65232 6.01398C3.99687 6.12867 3.31838 6.06513 2.70309 5.83143C2.08779 5.59773 1.56348 5.20443 1.19679 4.7015C0.830094 4.19858 0.637574 3.60875 0.643696 3.00697C0.649136 2.20778 1.0052 1.44298 1.63413 0.879596C2.26306 0.316209 3.11376 -1.23093e-06 4.00048 1.38095e-05ZM2.33239 3.01625C2.32837 3.31318 2.42201 3.60453 2.60148 3.85355C2.78095 4.10258 3.03821 4.29813 3.34083 4.41553C3.64345 4.53294 3.97786 4.56695 4.3019 4.51327C4.62593 4.45959 4.92507 4.32063 5.16159 4.11391C5.39811 3.90719 5.56142 3.64197 5.63092 3.3517C5.70041 3.06143 5.67299 2.75912 5.5521 2.48288C5.43121 2.20664 5.22227 1.96886 4.95163 1.79952C4.68099 1.63017 4.36078 1.53686 4.03137 1.53134C3.81145 1.52765 3.59289 1.5632 3.38828 1.63595C3.18366 1.70869 2.99703 1.8172 2.83912 1.95521C2.68121 2.09322 2.55515 2.25802 2.46818 2.44012C2.38121 2.62221 2.33506 2.81802 2.33239 3.01625Z" fill="white"/>
</g>
<defs>
<clipPath id="clip0">
<rect width="8" height="12" fill="white"/>
</clipPath>
</defs>
</svg>
